<?xml version="1.0" encoding="UTF-8"?>
<!DOCTYPE svg PUBLIC "-//W3C//DTD SVG 1.1//EN" "http://www.w3.org/Graphics/SVG/1.1/DTD/svg11.dtd">
<svg xmlns="http://www.w3.org/2000/svg" version="1.1" width="192px" height="192px" style="shape-rendering:geometricPrecision; text-rendering:geometricPrecision; image-rendering:optimizeQuality; fill-rule:evenodd; clip-rule:evenodd" xmlns:xlink="http://www.w3.org/1999/xlink">
<g><path style="opacity:0.947" fill="#edc460" d="M 94.5,-0.5 C 95.5,-0.5 96.5,-0.5 97.5,-0.5C 100.122,3.45718 103.122,7.12385 106.5,10.5C 98.9843,10.9896 91.651,10.9896 84.5,10.5C 87.8333,6.83333 91.1667,3.16667 94.5,-0.5 Z"/></g>
<g><path style="opacity:0.955" fill="#f1ca67" d="M 84.5,10.5 C 91.651,10.9896 98.9843,10.9896 106.5,10.5C 109.167,12.5 111.5,14.8333 113.5,17.5C 101.848,16.7673 90.1813,16.434 78.5,16.5C 80.1667,14.1667 82.1667,12.1667 84.5,10.5 Z"/></g>
<g><path style="opacity:0.963" fill="#f4ce6d" d="M 78.5,16.5 C 90.1813,16.434 101.848,16.7673 113.5,17.5C 116.833,20.1667 119.833,23.1667 122.5,26.5C 104.858,27.5017 86.8577,27.5017 68.5,26.5C 71.5,22.8333 74.8333,19.5 78.5,16.5 Z"/></g>
<g><path style="opacity:0.953" fill="#f0c967" d="M 68.5,26.5 C 86.8577,27.5017 104.858,27.5017 122.5,26.5C 124.833,28.1667 126.833,30.1667 128.5,32.5C 118.995,33.5495 109.328,33.5495 99.5,32.5C 98.2058,31.7101 97.0391,30.7101 96,29.5C 94.9609,30.7101 93.7942,31.7101 92.5,32.5C 82.8009,32.7253 73.1343,32.392 63.5,31.5C 64.8333,29.5 66.5,27.8333 68.5,26.5 Z"/></g>
<g><path style="opacity:0.935" fill="#ecc460" d="M 63.5,31.5 C 73.1343,32.392 82.8009,32.7253 92.5,32.5C 90.5,35.1667 88.1667,37.5 85.5,39.5C 76.0144,38.5062 66.3478,38.1729 56.5,38.5C 58.4728,35.8605 60.8061,33.5272 63.5,31.5 Z"/></g>
<g><path style="opacity:0.947" fill="#ecc360" d="M 99.5,32.5 C 109.328,33.5495 118.995,33.5495 128.5,32.5C 131.167,34.5 133.5,36.8333 135.5,39.5C 126.141,39.5458 116.474,39.5458 106.5,39.5C 103.833,37.5 101.5,35.1667 99.5,32.5 Z"/></g>
<g><path style="opacity:0.943" fill="#e9be5a" d="M 56.5,38.5 C 66.3478,38.1729 76.0144,38.5062 85.5,39.5C 84.5,41.1667 83.1667,42.5 81.5,43.5C 72.12,43.6606 62.4533,43.3273 52.5,42.5C 53.8333,41.1667 55.1667,39.8333 56.5,38.5 Z"/></g>
<g><path style="opacity:0.957" fill="#e9bf5a" d="M 106.5,39.5 C 116.474,39.5458 126.141,39.5458 135.5,39.5C 137.167,40.5 138.5,41.8333 139.5,43.5C 130.035,43.6557 120.368,43.6557 110.5,43.5C 108.833,42.5 107.5,41.1667 106.5,39.5 Z"/></g>
<g><path style="opacity:0.945" fill="#e5b953" d="M 52.5,42.5 C 62.4533,43.3273 72.12,43.6606 81.5,43.5C 79.8333,45.8333 77.8333,47.8333 75.5,49.5C 65.6505,49.8702 55.9838,49.8702 46.5,49.5C 48.2733,46.9401 50.2733,44.6068 52.5,42.5 Z"/></g>
<g><path style="opacity:0.943" fill="#e6ba54" d="M 110.5,43.5 C 120.368,43.6557 130.035,43.6557 139.5,43.5C 141.5,44.8333 143.167,46.5 144.5,48.5C 134.692,48.7196 124.692,48.7196 114.5,48.5C 113.197,46.8577 111.864,45.1911 110.5,43.5 Z"/></g>
<g><path style="opacity:0.958" fill="#e2b34c" d="M 46.5,49.5 C 55.9838,49.8702 65.6505,49.8702 75.5,49.5C 74.5,51.1667 73.1667,52.5 71.5,53.5C 61.8333,53.5 52.1667,53.5 42.5,53.5C 43.5,51.8333 44.8333,50.5 46.5,49.5 Z"/></g>
<g><path style="opacity:0.922" fill="#e2b44c" d="M 114.5,48.5 C 124.692,48.7196 134.692,48.7196 144.5,48.5C 147.167,50.5 149.5,52.8333 151.5,55.5C 141.5,55.5 131.5,55.5 121.5,55.5C 118.833,53.5 116.5,51.1667 114.5,48.5 Z"/></g>
<g><path style="opacity:0.959" fill="#dfaf47" d="M 42.5,53.5 C 52.1667,53.5 61.8333,53.5 71.5,53.5C 70.5,55.1667 69.1667,56.5 67.5,57.5C 58.1945,56.6462 48.8612,56.3129 39.5,56.5C 40.1667,55.1667 41.1667,54.1667 42.5,53.5 Z"/></g>
<g><path style="opacity:0.926" fill="#dfaf46" d="M 121.5,55.5 C 131.5,55.5 141.5,55.5 151.5,55.5C 152.306,56.7281 153.306,57.7281 154.5,58.5C 144.71,58.6187 134.71,58.6187 124.5,58.5C 123.167,57.8333 122.167,56.8333 121.5,55.5 Z"/></g>
<g><path style="opacity:0.959" fill="#dcab41" d="M 39.5,56.5 C 48.8612,56.3129 58.1945,56.6462 67.5,57.5C 66.5,59.1667 65.1667,60.5 63.5,61.5C 53.8333,61.5 44.1667,61.5 34.5,61.5C 35.8333,59.5 37.5,57.8333 39.5,56.5 Z"/></g>
<g><path style="opacity:0.93" fill="#dcab41" d="M 124.5,58.5 C 134.71,58.6187 144.71,58.6187 154.5,58.5C 156.367,59.7598 157.7,61.4265 158.5,63.5C 148.674,62.4054 139.007,62.4054 129.5,63.5C 127.5,62.1667 125.833,60.5 124.5,58.5 Z"/></g>
<g><path style="opacity:0.965" fill="#d8a63a" d="M 34.5,61.5 C 44.1667,61.5 53.8333,61.5 63.5,61.5C 62.1667,63.5 60.5,65.1667 58.5,66.5C 48.8333,66.5 39.1667,66.5 29.5,66.5C 30.8333,64.5 32.5,62.8333 34.5,61.5 Z"/></g>
<g><path style="opacity:0.942" fill="#d9a63b" d="M 158.5,63.5 C 160.71,63.894 162.043,65.2273 162.5,67.5C 152.833,67.5 143.167,67.5 133.5,67.5C 131.833,66.5 130.5,65.1667 129.5,63.5C 139.007,62.4054 148.674,62.4054 158.5,63.5 Z"/></g>
<g><path style="opacity:0.949" fill="#d5a134" d="M 133.5,67.5 C 143.167,67.5 152.833,67.5 162.5,67.5C 164.833,69.1667 166.833,71.1667 168.5,73.5C 158.552,72.5496 148.552,72.2162 138.5,72.5C 136.5,71.1667 134.833,69.5 133.5,67.5 Z"/></g>
<g><path style="opacity:0.956" fill="#d49e32" d="M 29.5,66.5 C 39.1667,66.5 48.8333,66.5 58.5,66.5C 56.8333,68.8333 54.8333,70.8333 52.5,72.5C 43.1136,72.7799 33.7803,72.4466 24.5,71.5C 25.8333,69.5 27.5,67.8333 29.5,66.5 Z"/></g>
<g><path style="opacity:0.953" fill="#d29b2e" d="M 138.5,72.5 C 148.552,72.2162 158.552,72.5496 168.5,73.5C 169.833,74.1667 170.833,75.1667 171.5,76.5C 162.141,76.5458 152.474,76.5458 142.5,76.5C 140.833,75.5 139.5,74.1667 138.5,72.5 Z"/></g>
<g><path style="opacity:0.956" fill="#cf9829" d="M 24.5,71.5 C 33.7803,72.4466 43.1136,72.7799 52.5,72.5C 50.5,75.1667 48.1667,77.5 45.5,79.5C 36.2197,78.5534 26.8864,78.2201 17.5,78.5C 19.5,75.8333 21.8333,73.5 24.5,71.5 Z"/></g>
<g><path style="opacity:0.962" fill="#cf9728" d="M 142.5,76.5 C 152.474,76.5458 162.141,76.5458 171.5,76.5C 173.167,77.5 174.5,78.8333 175.5,80.5C 172.833,80.5 170.167,80.5 167.5,80.5C 160.5,80.5 153.5,80.5 146.5,80.5C 146.167,80.5 145.833,80.5 145.5,80.5C 144.5,79.1667 143.5,77.8333 142.5,76.5 Z"/></g>
<g><path style="opacity:0.956" fill="#ca9020" d="M 17.5,78.5 C 26.8864,78.2201 36.2197,78.5534 45.5,79.5C 44.2195,82.4474 42.2195,84.7807 39.5,86.5C 31.8234,86.0086 23.8234,85.6753 15.5,85.5C 15.3379,83.4727 15.5045,81.4727 16,79.5C 16.3826,78.944 16.8826,78.6107 17.5,78.5 Z"/></g>
<g><path style="opacity:0.966" fill="#cf9729" d="M 109.5,80.5 C 109.5,87.5 109.5,94.5 109.5,101.5C 108.5,101.5 107.5,101.5 106.5,101.5C 106.575,95.4707 106.241,89.4707 105.5,83.5C 106.048,81.4677 107.381,80.4677 109.5,80.5 Z"/></g>
<g><path style="opacity:0.966" fill="#d39e31" d="M 109.5,80.5 C 111.5,80.5 113.5,80.5 115.5,80.5C 115.5,87.5 115.5,94.5 115.5,101.5C 113.5,101.5 111.5,101.5 109.5,101.5C 109.5,94.5 109.5,87.5 109.5,80.5 Z"/></g>
<g><path style="opacity:0.97" fill="#dba93f" d="M 115.5,80.5 C 118.167,80.5 120.833,80.5 123.5,80.5C 123.5,87.5 123.5,94.5 123.5,101.5C 120.833,101.5 118.167,101.5 115.5,101.5C 115.5,94.5 115.5,87.5 115.5,80.5 Z"/></g>
<g><path style="opacity:0.964" fill="#e0b149" d="M 123.5,80.5 C 125.167,80.5 126.833,80.5 128.5,80.5C 128.5,87.5 128.5,94.5 128.5,101.5C 126.833,101.5 125.167,101.5 123.5,101.5C 123.5,94.5 123.5,87.5 123.5,80.5 Z"/></g>
<g><path style="opacity:0.966" fill="#e5b952" d="M 128.5,80.5 C 130.5,80.5 132.5,80.5 134.5,80.5C 134.5,87.5 134.5,94.5 134.5,101.5C 132.5,101.5 130.5,101.5 128.5,101.5C 128.5,94.5 128.5,87.5 128.5,80.5 Z"/></g>
<g><path style="opacity:0.972" fill="#ebc15d" d="M 134.5,80.5 C 136.833,80.5 139.167,80.5 141.5,80.5C 141.795,87.5878 141.462,94.5878 140.5,101.5C 138.5,101.5 136.5,101.5 134.5,101.5C 134.5,94.5 134.5,87.5 134.5,80.5 Z"/></g>
<g><path style="opacity:0.975" fill="#f0c966" d="M 141.5,80.5 C 142.833,80.5 144.167,80.5 145.5,80.5C 145.833,80.5 146.167,80.5 146.5,80.5C 146.5,80.8333 146.5,81.1667 146.5,81.5C 146.062,81.4346 145.728,81.6012 145.5,82C 147.434,88.2113 148.101,94.7113 147.5,101.5C 145.167,101.5 142.833,101.5 140.5,101.5C 141.462,94.5878 141.795,87.5878 141.5,80.5 Z"/></g>
<g><path style="opacity:0.988" fill="#f1ca67" d="M 158.5,81.5 C 159.873,81.3433 161.207,81.51 162.5,82C 160.853,87.7939 159.853,93.7939 159.5,100C 162.365,100.183 165.031,100.683 167.5,101.5C 163.5,101.5 159.5,101.5 155.5,101.5C 155.648,95.347 155.648,89.0137 155.5,82.5C 156.791,82.7373 157.791,82.404 158.5,81.5 Z"/></g>
<g><path style="opacity:0.995" fill="#f4cf6d" d="M 146.5,81.5 C 150.5,81.5 154.5,81.5 158.5,81.5C 157.791,82.404 156.791,82.7373 155.5,82.5C 155.648,89.0137 155.648,95.347 155.5,101.5C 152.833,101.5 150.167,101.5 147.5,101.5C 148.101,94.7113 147.434,88.2113 145.5,82C 145.728,81.6012 146.062,81.4346 146.5,81.5 Z"/></g>
<g><path style="opacity:1" fill="#ebc25d" d="M 146.5,81.5 C 146.5,81.1667 146.5,80.8333 146.5,80.5C 153.5,80.5 160.5,80.5 167.5,80.5C 168.609,81.29 169.942,81.79 171.5,82C 170.552,82.4828 169.552,82.6495 168.5,82.5C 168.653,88.845 168.986,95.1783 169.5,101.5C 168.833,101.5 168.167,101.5 167.5,101.5C 165.031,100.683 162.365,100.183 159.5,100C 159.853,93.7939 160.853,87.7939 162.5,82C 161.207,81.51 159.873,81.3433 158.5,81.5C 154.5,81.5 150.5,81.5 146.5,81.5 Z"/></g>
<g><path style="opacity:0.998" fill="#e4b751" d="M 167.5,80.5 C 170.167,80.5 172.833,80.5 175.5,80.5C 175.5,87.5 175.5,94.5 175.5,101.5C 173.5,101.5 171.5,101.5 169.5,101.5C 168.986,95.1783 168.653,88.845 168.5,82.5C 169.552,82.6495 170.552,82.4828 171.5,82C 169.942,81.79 168.609,81.29 167.5,80.5 Z"/></g>
<g><path style="opacity:0.911" fill="#cb9222" d="M 105.5,83.5 C 106.241,89.4707 106.575,95.4707 106.5,101.5C 105.167,101.5 103.833,101.5 102.5,101.5C 102.5,97.5 102.5,93.5 102.5,89.5C 102.992,87.1815 103.992,85.1815 105.5,83.5 Z"/></g>
<g><path style="opacity:0.959" fill="#c48816" d="M 15.5,85.5 C 23.8234,85.6753 31.8234,86.0086 39.5,86.5C 38.1667,88.5 36.5,90.1667 34.5,91.5C 27.8787,92.0599 21.5454,91.3932 15.5,89.5C 15.5,88.1667 15.5,86.8333 15.5,85.5 Z"/></g>
<g><path style="opacity:0.879" fill="#c78b1a" d="M 102.5,89.5 C 102.5,93.5 102.5,97.5 102.5,101.5C 99.8127,101.664 97.146,101.497 94.5,101C 97.0297,96.9875 99.6964,93.1541 102.5,89.5 Z"/></g>
<g><path style="opacity:0.927" fill="#be7f0b" d="M 15.5,89.5 C 21.5454,91.3932 27.8787,92.0599 34.5,91.5C 28.5361,97.9648 22.3694,104.298 16,110.5C 15.5004,103.508 15.3337,96.5079 15.5,89.5 Z"/></g>
<g><path style="opacity:0.92" fill="#cc9223" d="M 33.5,98.5 C 33.5,108.5 33.5,118.5 33.5,128.5C 31.5,127.167 29.8333,125.5 28.5,123.5C 28.5,116.5 28.5,109.5 28.5,102.5C 29.1175,100.771 30.1175,99.2708 31.5,98C 32.4368,97.3083 33.1034,97.475 33.5,98.5 Z"/></g>
<g><path style="opacity:0.945" fill="#d19a2c" d="M 33.5,98.5 C 35.8333,100.167 37.8333,102.167 39.5,104.5C 39.5,114.5 39.5,124.5 39.5,134.5C 37.1667,132.833 35.1667,130.833 33.5,128.5C 33.5,118.5 33.5,108.5 33.5,98.5 Z"/></g>
<g><path style="opacity:0.947" fill="#c0810d" d="M 158.5,103.5 C 158.5,111.5 158.5,119.5 158.5,127.5C 156.5,130.167 154.167,132.5 151.5,134.5C 151.5,124.5 151.5,114.5 151.5,104.5C 153.607,103.532 155.941,103.198 158.5,103.5 Z"/></g>
<g><path style="opacity:0.886" fill="#ba7802" d="M 158.5,103.5 C 164.167,103.5 169.833,103.5 175.5,103.5C 175.664,106.187 175.497,108.854 175,111.5C 169.631,117.036 164.131,122.37 158.5,127.5C 158.5,119.5 158.5,111.5 158.5,103.5 Z"/></g>
<g><path style="opacity:0.889" fill="#c68b19" d="M 28.5,102.5 C 28.5,109.5 28.5,116.5 28.5,123.5C 24.4829,120.474 21.1496,116.808 18.5,112.5C 21.521,108.812 24.8544,105.479 28.5,102.5 Z"/></g>
<g><path style="opacity:0.945" fill="#c58816" d="M 151.5,104.5 C 151.5,114.5 151.5,124.5 151.5,134.5C 150.5,136.167 149.167,137.5 147.5,138.5C 147.5,128.5 147.5,118.5 147.5,108.5C 148.5,106.833 149.833,105.5 151.5,104.5 Z"/></g>
<g><path style="opacity:0.938" fill="#d5a033" d="M 39.5,104.5 C 41.1667,105.5 42.5,106.833 43.5,108.5C 43.5,118.5 43.5,128.5 43.5,138.5C 41.8333,137.5 40.5,136.167 39.5,134.5C 39.5,124.5 39.5,114.5 39.5,104.5 Z"/></g>
<g><path style="opacity:0.945" fill="#d8a53a" d="M 43.5,108.5 C 45.5,109.833 47.1667,111.5 48.5,113.5C 48.5,123.5 48.5,133.5 48.5,143.5C 46.5,142.167 44.8333,140.5 43.5,138.5C 43.5,128.5 43.5,118.5 43.5,108.5 Z"/></g>
<g><path style="opacity:0.94" fill="#ca901f" d="M 147.5,108.5 C 147.5,118.5 147.5,128.5 147.5,138.5C 145.5,141.167 143.167,143.5 140.5,145.5C 140.5,135.5 140.5,125.5 140.5,115.5C 142.5,112.833 144.833,110.5 147.5,108.5 Z"/></g>
<g><path style="opacity:0.941" fill="#dcab41" d="M 48.5,113.5 C 50.1667,114.5 51.5,115.833 52.5,117.5C 52.5,127.5 52.5,137.5 52.5,147.5C 50.8333,146.5 49.5,145.167 48.5,143.5C 48.5,133.5 48.5,123.5 48.5,113.5 Z"/></g>
<g><path style="opacity:0.942" fill="#dfaf47" d="M 52.5,117.5 C 54.1667,118.5 55.5,119.833 56.5,121.5C 56.5,131.5 56.5,141.5 56.5,151.5C 54.8333,150.5 53.5,149.167 52.5,147.5C 52.5,137.5 52.5,127.5 52.5,117.5 Z"/></g>
<g><path style="opacity:0.944" fill="#ce9728" d="M 140.5,115.5 C 140.5,125.5 140.5,135.5 140.5,145.5C 139.5,147.167 138.167,148.5 136.5,149.5C 136.5,139.5 136.5,129.5 136.5,119.5C 137.5,117.833 138.833,116.5 140.5,115.5 Z"/></g>
<g><path style="opacity:0.959" fill="#d19b2d" d="M 136.5,119.5 C 136.5,129.5 136.5,139.5 136.5,149.5C 135.5,151.167 134.167,152.5 132.5,153.5C 132.5,143.833 132.5,134.167 132.5,124.5C 133.864,122.809 135.197,121.142 136.5,119.5 Z"/></g>
<g><path style="opacity:0.941" fill="#e3b64e" d="M 56.5,121.5 C 58.5,122.833 60.1667,124.5 61.5,126.5C 61.5,136.5 61.5,146.5 61.5,156.5C 59.5,155.167 57.8333,153.5 56.5,151.5C 56.5,141.5 56.5,131.5 56.5,121.5 Z"/></g>
<g><path style="opacity:0.962" fill="#d5a034" d="M 132.5,124.5 C 132.5,134.167 132.5,143.833 132.5,153.5C 131.833,155.5 130.5,156.833 128.5,157.5C 128.5,147.833 128.5,138.167 128.5,128.5C 129.5,126.833 130.833,125.5 132.5,124.5 Z"/></g>
<g><path style="opacity:0.956" fill="#d8a53a" d="M 128.5,128.5 C 128.5,138.167 128.5,147.833 128.5,157.5C 127.203,159.161 125.87,160.828 124.5,162.5C 124.5,152.5 124.5,142.5 124.5,132.5C 125.5,130.833 126.833,129.5 128.5,128.5 Z"/></g>
<g><path style="opacity:0.945" fill="#e8bc56" d="M 61.5,126.5 C 64.5,128.833 67.1667,131.5 69.5,134.5C 69.5,144.5 69.5,154.5 69.5,164.5C 66.5,162.167 63.8333,159.5 61.5,156.5C 61.5,146.5 61.5,136.5 61.5,126.5 Z"/></g>
<g><path style="opacity:0.955" fill="#dcab41" d="M 124.5,132.5 C 124.5,142.5 124.5,152.5 124.5,162.5C 122.605,163.973 120.939,165.64 119.5,167.5C 119.5,157.5 119.5,147.5 119.5,137.5C 120.833,135.5 122.5,133.833 124.5,132.5 Z"/></g>
<g><path style="opacity:0.958" fill="#ecc35f" d="M 69.5,134.5 C 71.4707,136.808 73.4707,139.142 75.5,141.5C 75.5,151.167 75.5,160.833 75.5,170.5C 73.1667,168.833 71.1667,166.833 69.5,164.5C 69.5,154.5 69.5,144.5 69.5,134.5 Z"/></g>
<g><path style="opacity:0.944" fill="#dfb047" d="M 119.5,137.5 C 119.5,147.5 119.5,157.5 119.5,167.5C 118.5,169.167 117.167,170.5 115.5,171.5C 115.5,161.5 115.5,151.5 115.5,141.5C 116.5,139.833 117.833,138.5 119.5,137.5 Z"/></g>
<g><path style="opacity:0.975" fill="#f0c967" d="M 75.5,141.5 C 77.8333,143.167 79.8333,145.167 81.5,147.5C 81.5,157.167 81.5,166.833 81.5,176.5C 79.1667,174.833 77.1667,172.833 75.5,170.5C 75.5,160.833 75.5,151.167 75.5,141.5 Z"/></g>
<g><path style="opacity:0.938" fill="#e3b64e" d="M 115.5,141.5 C 115.5,151.5 115.5,161.5 115.5,171.5C 114.167,173.5 112.5,175.167 110.5,176.5C 110.5,166.5 110.5,156.5 110.5,146.5C 111.833,144.5 113.5,142.833 115.5,141.5 Z"/></g>
<g><path style="opacity:0.953" fill="#f4ce6d" d="M 81.5,147.5 C 84.8333,150.167 87.8333,153.167 90.5,156.5C 90.5,166.5 90.5,176.5 90.5,186.5C 87.0317,183.544 84.0317,180.211 81.5,176.5C 81.5,166.833 81.5,157.167 81.5,147.5 Z"/></g>
<g><path style="opacity:0.946" fill="#e7bb55" d="M 110.5,146.5 C 110.5,156.5 110.5,166.5 110.5,176.5C 109.5,178.167 108.167,179.5 106.5,180.5C 106.5,170.5 106.5,160.5 106.5,150.5C 107.5,148.833 108.833,147.5 110.5,146.5 Z"/></g>
<g><path style="opacity:0.94" fill="#e9be5a" d="M 106.5,150.5 C 106.5,160.5 106.5,170.5 106.5,180.5C 105.5,182.167 104.167,183.5 102.5,184.5C 102.5,174.5 102.5,164.5 102.5,154.5C 103.5,152.833 104.833,151.5 106.5,150.5 Z"/></g>
<g><path style="opacity:0.94" fill="#edc460" d="M 102.5,154.5 C 102.5,164.5 102.5,174.5 102.5,184.5C 100.5,186.833 98.5,189.167 96.5,191.5C 96.1667,191.5 95.8333,191.5 95.5,191.5C 95.5,181.167 95.5,170.833 95.5,160.5C 97.8333,158.5 100.167,156.5 102.5,154.5 Z"/></g>
<g><path style="opacity:0.939" fill="#f1ca68" d="M 90.5,156.5 C 92.1667,157.833 93.8333,159.167 95.5,160.5C 95.5,170.833 95.5,181.167 95.5,191.5C 95.1667,191.5 94.8333,191.5 94.5,191.5C 93.1667,189.833 91.8333,188.167 90.5,186.5C 90.5,176.5 90.5,166.5 90.5,156.5 Z"/></g>
</svg>
